0
SECTION
2
HEADER
9
$INSUNITS
70
4
0
ENDSEC
0
SECTION
2
TABLES
0
TABLE
2
LTYPE
0
LTYPE
72
65
70
64
2
CONTINUOUS
3
______
73
0
40
0
0
ENDTAB
0
TABLE
2
LAYER
0
ENDTAB
0
ENDSEC
0
SECTION
2
ENTITIES
0
LINE
8
0
10
-6.7447711
20
10.7938901
11
10.7938901
21
6.7447711
0
LINE
8
0
10
10.7938901
20
6.7447711
11
6.7447711
21
-10.7938901
0
LINE
8
0
10
6.7447711
20
-10.7938901
11
-10.7938901
21
-6.7447711
0
LINE
8
0
10
-10.7938901
20
-6.7447711
11
-6.7447711
21
10.7938901
0
LINE
8
0
10
-2.4707011
20
29.3069213
11
15.0679601
21
25.2578023
0
LINE
8
0
10
15.0679601
20
25.2578023
11
11.0188411
21
7.7191411
0
LINE
8
0
10
11.0188411
20
7.7191411
11
-6.5198201
21
11.7682601
0
LINE
8
0
10
-6.5198201
20
11.7682601
11
-2.4707011
21
29.3069213
0
LINE
8
0
10
1.8033689
20
47.8199525
11
19.3420301
21
43.7708335
0
LINE
8
0
10
19.3420301
20
43.7708335
11
15.2929111
21
26.2321723
0
LINE
8
0
10
15.2929111
20
26.2321723
11
-2.2457501
21
30.2812913
0
LINE
8
0
10
-2.2457501
20
30.2812913
11
1.8033689
21
47.8199525
0
LINE
8
0
10
11.7682601
20
6.5198201
11
29.3069213
21
2.4707011
0
LINE
8
0
10
29.3069213
20
2.4707011
11
25.2578023
21
-15.0679601
0
LINE
8
0
10
25.2578023
20
-15.0679601
11
7.7191411
21
-11.0188411
0
LINE
8
0
10
7.7191411
20
-11.0188411
11
11.7682601
21
6.5198201
0
LINE
8
0
10
16.0423301
20
25.0328513
11
33.5809913
21
20.9837323
0
LINE
8
0
10
33.5809913
20
20.9837323
11
29.5318723
21
3.4450711
0
LINE
8
0
10
29.5318723
20
3.4450711
11
11.9932111
21
7.4941901
0
LINE
8
0
10
11.9932111
20
7.4941901
11
16.0423301
21
25.0328513
0
LINE
8
0
10
20.3164001
20
43.5458825
11
37.8550613
21
39.4967635
0
LINE
8
0
10
37.8550613
20
39.4967635
11
33.8059423
21
21.9581023
0
LINE
8
0
10
33.8059423
20
21.9581023
11
16.2672811
21
26.0072213
0
LINE
8
0
10
16.2672811
20
26.0072213
11
20.3164001
21
43.5458825
0
LINE
8
0
10
32.0808998
20
10.0407106
11
49.619561
21
5.9915916
0
LINE
8
0
10
49.619561
20
5.9915916
11
45.570442
21
-11.5470696
0
LINE
8
0
10
45.570442
20
-11.5470696
11
28.0317808
21
-7.4979506
0
LINE
8
0
10
28.0317808
20
-7.4979506
11
32.0808998
21
10.0407106
0
LINE
8
0
10
36.3549698
20
28.5537418
11
53.893631
21
24.5046228
0
LINE
8
0
10
53.893631
20
24.5046228
11
49.844512
21
6.9659616
0
LINE
8
0
10
49.844512
20
6.9659616
11
32.3058508
21
11.0150806
0
LINE
8
0
10
32.3058508
20
11.0150806
11
36.3549698
21
28.5537418
0
LINE
8
0
10
40.6290398
20
47.066773
11
58.167701
21
43.017654
0
LINE
8
0
10
58.167701
20
43.017654
11
54.118582
21
25.4789928
0
LINE
8
0
10
54.118582
20
25.4789928
11
36.5799208
21
29.5281118
0
LINE
8
0
10
36.5799208
20
29.5281118
11
40.6290398
21
47.066773
0
LINE
8
0
10
51.7186863
20
10.6384908
11
69.2573475
21
6.5893718
0
LINE
8
0
10
69.2573475
20
6.5893718
11
65.2082285
21
-10.9492894
0
LINE
8
0
10
65.2082285
20
-10.9492894
11
47.6695673
21
-6.9001704
0
LINE
8
0
10
47.6695673
20
-6.9001704
11
51.7186863
21
10.6384908
0
LINE
8
0
10
55.9927563
20
29.151522
11
73.5314175
21
25.102403
0
LINE
8
0
10
73.5314175
20
25.102403
11
69.4822985
21
7.5637418
0
LINE
8
0
10
69.4822985
20
7.5637418
11
51.9436373
21
11.6128608
0
LINE
8
0
10
51.9436373
20
11.6128608
11
55.9927563
21
29.151522
0
LINE
8
0
10
60.2668263
20
47.6645532
11
77.8054875
21
43.6154342
0
LINE
8
0
10
77.8054875
20
43.6154342
11
73.7563685
21
26.076773
0
LINE
8
0
10
73.7563685
20
26.076773
11
56.2177073
21
30.125892
0
LINE
8
0
10
56.2177073
20
30.125892
11
60.2668263
21
47.6645532
0
LINE
8
0
10
68.8820112
20
0.5182004
11
86.4206724
21
-3.5309186
0
LINE
8
0
10
86.4206724
20
-3.5309186
11
82.3715534
21
-21.0695798
0
LINE
8
0
10
82.3715534
20
-21.0695798
11
64.8328922
21
-17.0204608
0
LINE
8
0
10
64.8328922
20
-17.0204608
11
68.8820112
21
0.5182004
0
LINE
8
0
10
73.1560812
20
19.0312316
11
90.6947424
21
14.9821126
0
LINE
8
0
10
90.6947424
20
14.9821126
11
86.6456234
21
-2.5565486
0
LINE
8
0
10
86.6456234
20
-2.5565486
11
69.1069622
21
1.4925704
0
LINE
8
0
10
69.1069622
20
1.4925704
11
73.1560812
21
19.0312316
0
LINE
8
0
10
77.4301512
20
37.5442628
11
94.9688124
21
33.4951438
0
LINE
8
0
10
94.9688124
20
33.4951438
11
90.9196934
21
15.9564826
0
LINE
8
0
10
90.9196934
20
15.9564826
11
73.3810322
21
20.0056016
0
LINE
8
0
10
73.3810322
20
20.0056016
11
77.4301512
21
37.5442628
0
LINE
8
0
10
86.9451403
20
-5.7046097
11
104.4838015
21
-9.7537287
0
LINE
8
0
10
104.4838015
20
-9.7537287
11
100.4346825
21
-27.2923899
0
LINE
8
0
10
100.4346825
20
-27.2923899
11
82.8960213
21
-23.2432709
0
LINE
8
0
10
82.8960213
20
-23.2432709
11
86.9451403
21
-5.7046097
0
LINE
8
0
10
91.2192103
20
12.8084215
11
108.7578715
21
8.7593025
0
LINE
8
0
10
108.7578715
20
8.7593025
11
104.7087525
21
-8.7793587
0
LINE
8
0
10
104.7087525
20
-8.7793587
11
87.1700913
21
-4.7302397
0
LINE
8
0
10
87.1700913
20
-4.7302397
11
91.2192103
21
12.8084215
0
LINE
8
0
10
95.4932803
20
31.3214527
11
113.0319415
21
27.2723337
0
LINE
8
0
10
113.0319415
20
27.2723337
11
108.9828225
21
9.7336725
0
LINE
8
0
10
108.9828225
20
9.7336725
11
91.4441613
21
13.7827915
0
LINE
8
0
10
91.4441613
20
13.7827915
11
95.4932803
21
31.3214527
0
LINE
8
0
10
53.4399683
20
-17.4691093
11
70.9786295
21
-21.5182283
0
LINE
8
0
10
70.9786295
20
-21.5182283
11
66.9295105
21
-39.0568895
0
LINE
8
0
10
66.9295105
20
-39.0568895
11
49.3908493
21
-35.0077705
0
LINE
8
0
10
49.3908493
20
-35.0077705
11
53.4399683
21
-17.4691093
0
LINE
8
0
10
76.9812442
20
-23.6747883
11
93.5503315
21
-30.7079486
0
LINE
8
0
10
93.5503315
20
-30.7079486
11
86.5171712
21
-47.2770359
0
LINE
8
0
10
86.5171712
20
-47.2770359
11
69.9480839
21
-40.2438756
0
LINE
8
0
10
69.9480839
20
-40.2438756
11
76.9812442
21
-23.6747883
0
LINE
8
0
10
101.6902069
20
-35.5281791
11
114.8545736
21
-47.8041496
0
LINE
8
0
10
114.8545736
20
-47.8041496
11
102.5786031
21
-60.9685163
0
LINE
8
0
10
102.5786031
20
-60.9685163
11
89.4142364
21
-48.6925458
0
LINE
8
0
10
89.4142364
20
-48.6925458
11
101.6902069
21
-35.5281791
0
LINE
8
0
10
232.7542499
20
6.7447711
11
250.2929111
21
10.7938901
0
LINE
8
0
10
250.2929111
20
10.7938901
11
254.3420301
21
-6.7447711
0
LINE
8
0
10
254.3420301
20
-6.7447711
11
236.8033689
21
-10.7938901
0
LINE
8
0
10
236.8033689
20
-10.7938901
11
232.7542499
21
6.7447711
0
LINE
8
0
10
228.4801799
20
25.2578023
11
246.0188411
21
29.3069213
0
LINE
8
0
10
246.0188411
20
29.3069213
11
250.0679601
21
11.7682601
0
LINE
8
0
10
250.0679601
20
11.7682601
11
232.5292989
21
7.7191411
0
LINE
8
0
10
232.5292989
20
7.7191411
11
228.4801799
21
25.2578023
0
LINE
8
0
10
224.2061099
20
43.7708335
11
241.7447711
21
47.8199525
0
LINE
8
0
10
241.7447711
20
47.8199525
11
245.7938901
21
30.2812913
0
LINE
8
0
10
245.7938901
20
30.2812913
11
228.2552289
21
26.2321723
0
LINE
8
0
10
228.2552289
20
26.2321723
11
224.2061099
21
43.7708335
0
LINE
8
0
10
214.2412187
20
2.4707011
11
231.7798799
21
6.5198201
0
LINE
8
0
10
231.7798799
20
6.5198201
11
235.8289989
21
-11.0188411
0
LINE
8
0
10
235.8289989
20
-11.0188411
11
218.2903377
21
-15.0679601
0
LINE
8
0
10
218.2903377
20
-15.0679601
11
214.2412187
21
2.4707011
0
LINE
8
0
10
209.9671487
20
20.9837323
11
227.5058099
21
25.0328513
0
LINE
8
0
10
227.5058099
20
25.0328513
11
231.5549289
21
7.4941901
0
LINE
8
0
10
231.5549289
20
7.4941901
11
214.0162677
21
3.4450711
0
LINE
8
0
10
214.0162677
20
3.4450711
11
209.9671487
21
20.9837323
0
LINE
8
0
10
205.6930787
20
39.4967635
11
223.2317399
21
43.5458825
0
LINE
8
0
10
223.2317399
20
43.5458825
11
227.2808589
21
26.0072213
0
LINE
8
0
10
227.2808589
20
26.0072213
11
209.7421977
21
21.9581023
0
LINE
8
0
10
209.7421977
20
21.9581023
11
205.6930787
21
39.4967635
0
LINE
8
0
10
193.928579
20
5.9915916
11
211.4672402
21
10.0407106
0
LINE
8
0
10
211.4672402
20
10.0407106
11
215.5163592
21
-7.4979506
0
LINE
8
0
10
215.5163592
20
-7.4979506
11
197.977698
21
-11.5470696
0
LINE
8
0
10
197.977698
20
-11.5470696
11
193.928579
21
5.9915916
0
LINE
8
0
10
189.654509
20
24.5046228
11
207.1931702
21
28.5537418
0
LINE
8
0
10
207.1931702
20
28.5537418
11
211.2422892
21
11.0150806
0
LINE
8
0
10
211.2422892
20
11.0150806
11
193.703628
21
6.9659616
0
LINE
8
0
10
193.703628
20
6.9659616
11
189.654509
21
24.5046228
0
LINE
8
0
10
185.380439
20
43.017654
11
202.9191002
21
47.066773
0
LINE
8
0
10
202.9191002
20
47.066773
11
206.9682192
21
29.5281118
0
LINE
8
0
10
206.9682192
20
29.5281118
11
189.429558
21
25.4789928
0
LINE
8
0
10
189.429558
20
25.4789928
11
185.380439
21
43.017654
0
LINE
8
0
10
174.2907925
20
6.5893718
11
191.8294537
21
10.6384908
0
LINE
8
0
10
191.8294537
20
10.6384908
11
195.8785727
21
-6.9001704
0
LINE
8
0
10
195.8785727
20
-6.9001704
11
178.3399115
21
-10.9492894
0
LINE
8
0
10
178.3399115
20
-10.9492894
11
174.2907925
21
6.5893718
0
LINE
8
0
10
170.0167225
20
25.102403
11
187.5553837
21
29.151522
0
LINE
8
0
10
187.5553837
20
29.151522
11
191.6045027
21
11.6128608
0
LINE
8
0
10
191.6045027
20
11.6128608
11
174.0658415
21
7.5637418
0
LINE
8
0
10
174.0658415
20
7.5637418
11
170.0167225
21
25.102403
0
LINE
8
0
10
165.7426525
20
43.6154342
11
183.2813137
21
47.6645532
0
LINE
8
0
10
183.2813137
20
47.6645532
11
187.3304327
21
30.125892
0
LINE
8
0
10
187.3304327
20
30.125892
11
169.7917715
21
26.076773
0
LINE
8
0
10
169.7917715
20
26.076773
11
165.7426525
21
43.6154342
0
LINE
8
0
10
157.1274676
20
-3.5309186
11
174.6661288
21
0.5182004
0
LINE
8
0
10
174.6661288
20
0.5182004
11
178.7152478
21
-17.0204608
0
LINE
8
0
10
178.7152478
20
-17.0204608
11
161.1765866
21
-21.0695798
0
LINE
8
0
10
161.1765866
20
-21.0695798
11
157.1274676
21
-3.5309186
0
LINE
8
0
10
152.8533976
20
14.9821126
11
170.3920588
21
19.0312316
0
LINE
8
0
10
170.3920588
20
19.0312316
11
174.4411778
21
1.4925704
0
LINE
8
0
10
174.4411778
20
1.4925704
11
156.9025166
21
-2.5565486
0
LINE
8
0
10
156.9025166
20
-2.5565486
11
152.8533976
21
14.9821126
0
LINE
8
0
10
148.5793276
20
33.4951438
11
166.1179888
21
37.5442628
0
LINE
8
0
10
166.1179888
20
37.5442628
11
170.1671078
21
20.0056016
0
LINE
8
0
10
170.1671078
20
20.0056016
11
152.6284466
21
15.9564826
0
LINE
8
0
10
152.6284466
20
15.9564826
11
148.5793276
21
33.4951438
0
LINE
8
0
10
139.0643385
20
-9.7537287
11
156.6029997
21
-5.7046097
0
LINE
8
0
10
156.6029997
20
-5.7046097
11
160.6521187
21
-23.2432709
0
LINE
8
0
10
160.6521187
20
-23.2432709
11
143.1134575
21
-27.2923899
0
LINE
8
0
10
143.1134575
20
-27.2923899
11
139.0643385
21
-9.7537287
0
LINE
8
0
10
134.7902685
20
8.7593025
11
152.3289297
21
12.8084215
0
LINE
8
0
10
152.3289297
20
12.8084215
11
156.3780487
21
-4.7302397
0
LINE
8
0
10
156.3780487
20
-4.7302397
11
138.8393875
21
-8.7793587
0
LINE
8
0
10
138.8393875
20
-8.7793587
11
134.7902685
21
8.7593025
0
LINE
8
0
10
130.5161985
20
27.2723337
11
148.0548597
21
31.3214527
0
LINE
8
0
10
148.0548597
20
31.3214527
11
152.1039787
21
13.7827915
0
LINE
8
0
10
152.1039787
20
13.7827915
11
134.5653175
21
9.7336725
0
LINE
8
0
10
134.5653175
20
9.7336725
11
130.5161985
21
27.2723337
0
LINE
8
0
10
172.5695105
20
-21.5182283
11
190.1081717
21
-17.4691093
0
LINE
8
0
10
190.1081717
20
-17.4691093
11
194.1572907
21
-35.0077705
0
LINE
8
0
10
194.1572907
20
-35.0077705
11
176.6186295
21
-39.0568895
0
LINE
8
0
10
176.6186295
20
-39.0568895
11
172.5695105
21
-21.5182283
0
LINE
8
0
10
149.9978085
20
-30.7079486
11
166.5668958
21
-23.6747883
0
LINE
8
0
10
166.5668958
20
-23.6747883
11
173.6000561
21
-40.2438756
0
LINE
8
0
10
173.6000561
20
-40.2438756
11
157.0309688
21
-47.2770359
0
LINE
8
0
10
157.0309688
20
-47.2770359
11
149.9978085
21
-30.7079486
0
LINE
8
0
10
128.6935664
20
-47.8041496
11
141.8579331
21
-35.5281791
0
LINE
8
0
10
141.8579331
20
-35.5281791
11
154.1339036
21
-48.6925458
0
LINE
8
0
10
154.1339036
20
-48.6925458
11
140.9695369
21
-60.9685163
0
LINE
8
0
10
140.9695369
20
-60.9685163
11
128.6935664
21
-47.8041496
0
ENDSEC
0
EOF