%TF.GenerationSoftware,KiCad,Pcbnew,(6.0.8)*%
%TF.CreationDate,2023-05-09T18:28:35-05:00*%
%TF.ProjectId,Butterfly,42757474-6572-4666-9c79-2e6b69636164,1.0.0*%
%TF.SameCoordinates,Original*%
%TF.FileFunction,Legend,Bot*%
%TF.FilePolarity,Positive*%
%FSLAX46Y46*%
G04 Gerber Fmt 4.6, Leading zero omitted, Abs format (unit mm)*
G04 Created by KiCad (PCBNEW (6.0.8)) date 2023-05-09 18:28:35*
%MOMM*%
%LPD*%
G01*
G04 APERTURE LIST*
%ADD10C,0.150000*%
%ADD11C,0.120000*%
G04 APERTURE END LIST*
D10*
%TO.C,SW1*%
X182369958Y-110123404D02*
X182703292Y-109647214D01*
X182941387Y-110123404D02*
X182941387Y-109123404D01*
X182560435Y-109123404D01*
X182465197Y-109171024D01*
X182417578Y-109218643D01*
X182369958Y-109313881D01*
X182369958Y-109456738D01*
X182417578Y-109551976D01*
X182465197Y-109599595D01*
X182560435Y-109647214D01*
X182941387Y-109647214D01*
X181941387Y-109599595D02*
X181608054Y-109599595D01*
X181465197Y-110123404D02*
X181941387Y-110123404D01*
X181941387Y-109123404D01*
X181465197Y-109123404D01*
X181084244Y-110075785D02*
X180941387Y-110123404D01*
X180703292Y-110123404D01*
X180608054Y-110075785D01*
X180560435Y-110028166D01*
X180512816Y-109932928D01*
X180512816Y-109837690D01*
X180560435Y-109742452D01*
X180608054Y-109694833D01*
X180703292Y-109647214D01*
X180893768Y-109599595D01*
X180989006Y-109551976D01*
X181036625Y-109504357D01*
X181084244Y-109409119D01*
X181084244Y-109313881D01*
X181036625Y-109218643D01*
X180989006Y-109171024D01*
X180893768Y-109123404D01*
X180655673Y-109123404D01*
X180512816Y-109171024D01*
X180084244Y-109599595D02*
X179750911Y-109599595D01*
X179608054Y-110123404D02*
X180084244Y-110123404D01*
X180084244Y-109123404D01*
X179608054Y-109123404D01*
X179322339Y-109123404D02*
X178750911Y-109123404D01*
X179036625Y-110123404D02*
X179036625Y-109123404D01*
%TO.C,D4*%
X129600398Y-68884375D02*
X128626028Y-68659424D01*
X128572468Y-68891417D01*
X128586731Y-69041325D01*
X128658104Y-69155546D01*
X128740190Y-69223368D01*
X128915072Y-69312615D01*
X129054268Y-69344750D01*
X129250574Y-69341200D01*
X129354083Y-69316225D01*
X129468304Y-69244852D01*
X129546838Y-69116368D01*
X129600398Y-68884375D01*
X128629460Y-70126365D02*
X129279040Y-70276332D01*
X128311831Y-69808677D02*
X129061369Y-69737363D01*
X128922114Y-70340544D01*
%TO.C,D32*%
X244158669Y-107925046D02*
X243184299Y-108149997D01*
X243237859Y-108381990D01*
X243316393Y-108510474D01*
X243430614Y-108581847D01*
X243534123Y-108606822D01*
X243730430Y-108610373D01*
X243869625Y-108578237D01*
X244044508Y-108488990D01*
X244126593Y-108421168D01*
X244197966Y-108306947D01*
X244212229Y-108157039D01*
X244158669Y-107925046D01*
X243387826Y-109031570D02*
X243527082Y-109634752D01*
X243823287Y-109224266D01*
X243855422Y-109363462D01*
X243923245Y-109445547D01*
X243980355Y-109481234D01*
X244083864Y-109506208D01*
X244315857Y-109452648D01*
X244397943Y-109384826D01*
X244433629Y-109327715D01*
X244458604Y-109224206D01*
X244394332Y-108945815D01*
X244326510Y-108863730D01*
X244269399Y-108828043D01*
X243705574Y-109984516D02*
X243669888Y-110041627D01*
X243644913Y-110145136D01*
X243698473Y-110377129D01*
X243766295Y-110459214D01*
X243823406Y-110494901D01*
X243926915Y-110519875D01*
X244019712Y-110498451D01*
X244148196Y-110419917D01*
X244576435Y-109734591D01*
X244715691Y-110337772D01*
%TO.C,D21*%
X257899436Y-82757760D02*
X256925066Y-82982711D01*
X256978626Y-83214704D01*
X257057160Y-83343188D01*
X257171381Y-83414561D01*
X257274890Y-83439536D01*
X257471197Y-83443087D01*
X257610392Y-83410951D01*
X257785275Y-83321704D01*
X257867360Y-83253882D01*
X257938733Y-83139661D01*
X257952996Y-82989753D01*
X257899436Y-82757760D01*
X257232102Y-83889259D02*
X257196416Y-83946369D01*
X257171441Y-84049879D01*
X257225001Y-84281871D01*
X257292823Y-84363957D01*
X257349934Y-84399643D01*
X257453443Y-84424618D01*
X257546240Y-84403194D01*
X257674724Y-84324660D01*
X258102963Y-83639333D01*
X258242219Y-84242515D01*
X258456458Y-85170486D02*
X258327914Y-84613703D01*
X258392186Y-84892095D02*
X257417816Y-85117046D01*
X257535588Y-84992113D01*
X257606961Y-84877892D01*
X257631936Y-84774383D01*
%TO.C,D19*%
X221668711Y-95195426D02*
X220694341Y-95420377D01*
X220747901Y-95652370D01*
X220826435Y-95780854D01*
X220940656Y-95852227D01*
X221044165Y-95877202D01*
X221240472Y-95880753D01*
X221379667Y-95848617D01*
X221554550Y-95759370D01*
X221636635Y-95691548D01*
X221708008Y-95577327D01*
X221722271Y-95427419D01*
X221668711Y-95195426D01*
X222011494Y-96680181D02*
X221882950Y-96123398D01*
X221947222Y-96401789D02*
X220972852Y-96626740D01*
X221090624Y-96501807D01*
X221161997Y-96387586D01*
X221186972Y-96284077D01*
X222118613Y-97144166D02*
X222161461Y-97329761D01*
X222136486Y-97433270D01*
X222100800Y-97490380D01*
X221983028Y-97615313D01*
X221808146Y-97704560D01*
X221436957Y-97790255D01*
X221333448Y-97765281D01*
X221276337Y-97729594D01*
X221208515Y-97647509D01*
X221165667Y-97461915D01*
X221190642Y-97358406D01*
X221226328Y-97301295D01*
X221308414Y-97233472D01*
X221540406Y-97179913D01*
X221643916Y-97204887D01*
X221701026Y-97240574D01*
X221768849Y-97322659D01*
X221811696Y-97508253D01*
X221786722Y-97611763D01*
X221751035Y-97668873D01*
X221668950Y-97736696D01*
%TO.C,D11*%
X292344612Y-62586031D02*
X291370242Y-62810982D01*
X291423802Y-63042975D01*
X291502336Y-63171459D01*
X291616557Y-63242832D01*
X291720066Y-63267807D01*
X291916373Y-63271358D01*
X292055568Y-63239222D01*
X292230451Y-63149975D01*
X292312536Y-63082153D01*
X292383909Y-62967932D01*
X292398172Y-62818024D01*
X292344612Y-62586031D01*
X292687395Y-64070786D02*
X292558851Y-63514003D01*
X292623123Y-63792394D02*
X291648753Y-64017345D01*
X291766525Y-63892412D01*
X291837898Y-63778191D01*
X291862873Y-63674682D01*
X292901634Y-64998757D02*
X292773090Y-64441974D01*
X292837362Y-64720366D02*
X291862992Y-64945317D01*
X291980764Y-64820384D01*
X292052137Y-64706163D01*
X292077112Y-64602654D01*
%TO.C,D7*%
X217376318Y-77449878D02*
X216401948Y-77674829D01*
X216455507Y-77906822D01*
X216534042Y-78035306D01*
X216648263Y-78106679D01*
X216751772Y-78131654D01*
X216948078Y-78135204D01*
X217087274Y-78103069D01*
X217262156Y-78013822D01*
X217344241Y-77946000D01*
X217415615Y-77831779D01*
X217429877Y-77681871D01*
X217376318Y-77449878D01*
X216605475Y-78556402D02*
X216755442Y-79205982D01*
X217633405Y-78563444D01*
%TO.C,D30*%
X157189053Y-118754962D02*
X156214683Y-118530011D01*
X156161123Y-118762004D01*
X156175386Y-118911912D01*
X156246759Y-119026133D01*
X156328844Y-119093955D01*
X156503726Y-119183202D01*
X156642922Y-119215338D01*
X156839228Y-119211787D01*
X156942738Y-119186812D01*
X157056959Y-119115439D01*
X157135493Y-118986955D01*
X157189053Y-118754962D01*
X156011156Y-119411584D02*
X155871900Y-120014766D01*
X156318072Y-119775671D01*
X156285937Y-119914867D01*
X156310911Y-120018376D01*
X156346598Y-120075487D01*
X156428683Y-120143309D01*
X156660676Y-120196869D01*
X156764185Y-120171894D01*
X156821296Y-120136208D01*
X156889118Y-120054123D01*
X156953390Y-119775731D01*
X156928415Y-119672222D01*
X156892729Y-119615111D01*
X155732645Y-120617947D02*
X155711221Y-120710744D01*
X155736196Y-120814253D01*
X155771882Y-120871364D01*
X155853967Y-120939186D01*
X156028850Y-121028433D01*
X156260843Y-121081993D01*
X156457149Y-121078442D01*
X156560658Y-121053467D01*
X156617768Y-121017781D01*
X156685591Y-120935695D01*
X156707015Y-120842898D01*
X156682040Y-120739389D01*
X156646354Y-120682279D01*
X156564268Y-120614456D01*
X156389386Y-120525210D01*
X156157393Y-120471650D01*
X155961087Y-120475201D01*
X155857578Y-120500175D01*
X155800467Y-120535862D01*
X155732645Y-120617947D01*
%TO.C,D23*%
X296629930Y-81147781D02*
X295655560Y-81372732D01*
X295709120Y-81604725D01*
X295787654Y-81733209D01*
X295901875Y-81804582D01*
X296005384Y-81829557D01*
X296201691Y-81833108D01*
X296340886Y-81800972D01*
X296515769Y-81711725D01*
X296597854Y-81643903D01*
X296669227Y-81529682D01*
X296683490Y-81379774D01*
X296629930Y-81147781D01*
X295962596Y-82279280D02*
X295926910Y-82336390D01*
X295901935Y-82439900D01*
X295955495Y-82671892D01*
X296023317Y-82753978D01*
X296080428Y-82789664D01*
X296183937Y-82814639D01*
X296276734Y-82793215D01*
X296405218Y-82714681D01*
X296833457Y-82029354D01*
X296972713Y-82632536D01*
X296073326Y-83182277D02*
X296212582Y-83785458D01*
X296508787Y-83374973D01*
X296540922Y-83514168D01*
X296608745Y-83596253D01*
X296665855Y-83631940D01*
X296769365Y-83656915D01*
X297001357Y-83603355D01*
X297083443Y-83535532D01*
X297119129Y-83478422D01*
X297144104Y-83374913D01*
X297079832Y-83096521D01*
X297012010Y-83014436D01*
X296954899Y-82978750D01*
%TO.C,D5*%
X147447927Y-76263318D02*
X146473557Y-76038367D01*
X146419997Y-76270360D01*
X146434260Y-76420268D01*
X146505633Y-76534489D01*
X146587719Y-76602311D01*
X146762601Y-76691558D01*
X146901797Y-76723693D01*
X147098103Y-76720143D01*
X147201612Y-76695168D01*
X147315833Y-76623795D01*
X147394367Y-76495311D01*
X147447927Y-76263318D01*
X146141487Y-77476723D02*
X146248606Y-77012737D01*
X146723304Y-77073458D01*
X146666193Y-77109145D01*
X146598371Y-77191230D01*
X146544811Y-77423223D01*
X146569786Y-77526732D01*
X146605472Y-77583842D01*
X146687558Y-77651665D01*
X146919550Y-77705225D01*
X147023060Y-77680250D01*
X147080170Y-77644563D01*
X147147993Y-77562478D01*
X147201552Y-77330485D01*
X147176578Y-77226976D01*
X147140891Y-77169866D01*
%TO.C,D24*%
X315191679Y-76862463D02*
X314217309Y-77087414D01*
X314270869Y-77319407D01*
X314349403Y-77447891D01*
X314463624Y-77519264D01*
X314567133Y-77544239D01*
X314763440Y-77547790D01*
X314902635Y-77515654D01*
X315077518Y-77426407D01*
X315159603Y-77358585D01*
X315230976Y-77244364D01*
X315245239Y-77094456D01*
X315191679Y-76862463D01*
X314524345Y-77993962D02*
X314488659Y-78051072D01*
X314463684Y-78154582D01*
X314517244Y-78386574D01*
X314585066Y-78468660D01*
X314642177Y-78504346D01*
X314745686Y-78529321D01*
X314838483Y-78507897D01*
X314966967Y-78429363D01*
X315395206Y-77744036D01*
X315534462Y-78347218D01*
X315077697Y-79332359D02*
X315727277Y-79182392D01*
X314652948Y-79186062D02*
X315295367Y-78793390D01*
X315434623Y-79396571D01*
%TO.C,D36*%
X319476997Y-95424213D02*
X318502627Y-95649164D01*
X318556187Y-95881157D01*
X318634721Y-96009641D01*
X318748942Y-96081014D01*
X318852451Y-96105989D01*
X319048758Y-96109540D01*
X319187953Y-96077404D01*
X319362836Y-95988157D01*
X319444921Y-95920335D01*
X319516294Y-95806114D01*
X319530557Y-95656206D01*
X319476997Y-95424213D01*
X318706154Y-96530737D02*
X318845410Y-97133919D01*
X319141615Y-96723433D01*
X319173750Y-96862629D01*
X319241573Y-96944714D01*
X319298683Y-96980401D01*
X319402192Y-97005375D01*
X319634185Y-96951815D01*
X319716271Y-96883993D01*
X319751957Y-96826882D01*
X319776932Y-96723373D01*
X319712660Y-96444982D01*
X319644838Y-96362897D01*
X319587727Y-96327210D01*
X319038225Y-97969093D02*
X318995377Y-97783499D01*
X319020352Y-97679990D01*
X319056038Y-97622879D01*
X319173810Y-97497946D01*
X319348692Y-97408700D01*
X319719881Y-97323004D01*
X319823390Y-97347979D01*
X319880501Y-97383665D01*
X319948323Y-97465751D01*
X319991171Y-97651345D01*
X319966196Y-97754854D01*
X319930510Y-97811964D01*
X319848424Y-97879787D01*
X319616432Y-97933347D01*
X319512922Y-97908372D01*
X319455812Y-97872685D01*
X319387989Y-97790600D01*
X319345142Y-97605006D01*
X319370116Y-97501497D01*
X319405803Y-97444386D01*
X319487888Y-97376564D01*
%TO.C,D40*%
X217826164Y-138310957D02*
X217038153Y-138926618D01*
X217184739Y-139114240D01*
X217310215Y-139197496D01*
X217443898Y-139213910D01*
X217548264Y-139192800D01*
X217727678Y-139113055D01*
X217840251Y-139025104D01*
X217961031Y-138870310D01*
X218006763Y-138774152D01*
X218023177Y-138640469D01*
X217972750Y-138498578D01*
X217826164Y-138310957D01*
X218180340Y-139847127D02*
X218705680Y-139436686D01*
X217733559Y-139894044D02*
X218149838Y-139266664D01*
X218530961Y-139754480D01*
X218357427Y-140615213D02*
X218416062Y-140690261D01*
X218512221Y-140735993D01*
X218579062Y-140744200D01*
X218683428Y-140723090D01*
X218862843Y-140643345D01*
X219050464Y-140496759D01*
X219171244Y-140341966D01*
X219216976Y-140245807D01*
X219225183Y-140178966D01*
X219204073Y-140074600D01*
X219145438Y-139999551D01*
X219049279Y-139953820D01*
X218982438Y-139945613D01*
X218878072Y-139966723D01*
X218698658Y-140046467D01*
X218511036Y-140193053D01*
X218390256Y-140347847D01*
X218344524Y-140444005D01*
X218336317Y-140510847D01*
X218357427Y-140615213D01*
%TO.C,D38*%
X145918857Y-139901816D02*
X145027851Y-139447825D01*
X144919758Y-139659970D01*
X144897331Y-139808875D01*
X144938951Y-139936970D01*
X145002190Y-140022636D01*
X145150287Y-140151539D01*
X145277574Y-140216395D01*
X145468908Y-140260440D01*
X145575384Y-140261249D01*
X145703479Y-140219628D01*
X145810764Y-140113960D01*
X145918857Y-139901816D01*
X144617097Y-140253974D02*
X144336055Y-140805549D01*
X144826817Y-140681496D01*
X144761961Y-140808783D01*
X144761153Y-140915259D01*
X144781963Y-140979306D01*
X144845202Y-141064973D01*
X145057346Y-141173066D01*
X145163823Y-141173874D01*
X145227870Y-141153064D01*
X145313536Y-141089824D01*
X145443248Y-140835251D01*
X145444056Y-140728775D01*
X145423246Y-140664727D01*
X144458492Y-141509263D02*
X144459301Y-141402787D01*
X144438490Y-141338739D01*
X144375251Y-141253073D01*
X144332822Y-141231455D01*
X144226346Y-141230647D01*
X144162298Y-141251457D01*
X144076632Y-141314696D01*
X143990158Y-141484412D01*
X143989350Y-141590888D01*
X144010160Y-141654935D01*
X144073399Y-141740601D01*
X144115828Y-141762220D01*
X144222304Y-141763028D01*
X144286352Y-141742218D01*
X144372018Y-141678979D01*
X144458492Y-141509263D01*
X144544158Y-141446024D01*
X144608206Y-141425214D01*
X144714682Y-141426022D01*
X144884398Y-141512497D01*
X144947637Y-141598163D01*
X144968447Y-141662210D01*
X144967639Y-141768686D01*
X144881164Y-141938402D01*
X144795498Y-142001641D01*
X144731451Y-142022451D01*
X144624975Y-142021643D01*
X144455259Y-141935169D01*
X144392020Y-141849503D01*
X144371210Y-141785455D01*
X144372018Y-141678979D01*
%TO.C,D12*%
X310906362Y-58300714D02*
X309931992Y-58525665D01*
X309985552Y-58757658D01*
X310064086Y-58886142D01*
X310178307Y-58957515D01*
X310281816Y-58982490D01*
X310478123Y-58986041D01*
X310617318Y-58953905D01*
X310792201Y-58864658D01*
X310874286Y-58796836D01*
X310945659Y-58682615D01*
X310959922Y-58532707D01*
X310906362Y-58300714D01*
X311249145Y-59785469D02*
X311120601Y-59228686D01*
X311184873Y-59507077D02*
X310210503Y-59732028D01*
X310328275Y-59607095D01*
X310399648Y-59492874D01*
X310424623Y-59389365D01*
X310453267Y-60360184D02*
X310417581Y-60417295D01*
X310392606Y-60520804D01*
X310446166Y-60752797D01*
X310513988Y-60834882D01*
X310571099Y-60870569D01*
X310674608Y-60895543D01*
X310767405Y-60874119D01*
X310895889Y-60795585D01*
X311324128Y-60110259D01*
X311463384Y-60713440D01*
%TO.C,D27*%
X101860914Y-104352196D02*
X100886544Y-104127245D01*
X100832984Y-104359238D01*
X100847247Y-104509146D01*
X100918620Y-104623367D01*
X101000705Y-104691189D01*
X101175587Y-104780436D01*
X101314783Y-104812572D01*
X101511089Y-104809021D01*
X101614599Y-104784046D01*
X101728820Y-104712673D01*
X101807354Y-104584189D01*
X101860914Y-104352196D01*
X100765102Y-105076641D02*
X100707991Y-105112327D01*
X100640169Y-105194413D01*
X100586609Y-105426405D01*
X100611584Y-105529915D01*
X100647270Y-105587025D01*
X100729355Y-105654848D01*
X100822153Y-105676271D01*
X100972060Y-105662009D01*
X101657387Y-105233769D01*
X101518131Y-105836951D01*
X100468778Y-105936790D02*
X100318810Y-106586370D01*
X101389588Y-106393734D01*
%TO.C,D16*%
X125422200Y-86982138D02*
X124447830Y-86757187D01*
X124394270Y-86989180D01*
X124408533Y-87139088D01*
X124479906Y-87253309D01*
X124561991Y-87321131D01*
X124736873Y-87410378D01*
X124876069Y-87442514D01*
X125072375Y-87438963D01*
X125175885Y-87413988D01*
X125290106Y-87342615D01*
X125368640Y-87214131D01*
X125422200Y-86982138D01*
X125079417Y-88466893D02*
X125207961Y-87910110D01*
X125143689Y-88188501D02*
X124169319Y-87963550D01*
X124329939Y-87902889D01*
X124444160Y-87831516D01*
X124511982Y-87749431D01*
X123912232Y-89077116D02*
X123955080Y-88891522D01*
X124022902Y-88809437D01*
X124080013Y-88773750D01*
X124240632Y-88713089D01*
X124436939Y-88709538D01*
X124808127Y-88795234D01*
X124890213Y-88863056D01*
X124925899Y-88920167D01*
X124950874Y-89023676D01*
X124908026Y-89209270D01*
X124840203Y-89291355D01*
X124783093Y-89327042D01*
X124679584Y-89352016D01*
X124447591Y-89298457D01*
X124365506Y-89230634D01*
X124329819Y-89173524D01*
X124304845Y-89070015D01*
X124347692Y-88884420D01*
X124415515Y-88802335D01*
X124472625Y-88766648D01*
X124576134Y-88741674D01*
%TO.C,D29*%
X138984413Y-112922830D02*
X138010043Y-112697879D01*
X137956483Y-112929872D01*
X137970746Y-113079780D01*
X138042119Y-113194001D01*
X138124204Y-113261823D01*
X138299086Y-113351070D01*
X138438282Y-113383206D01*
X138634588Y-113379655D01*
X138738098Y-113354680D01*
X138852319Y-113283307D01*
X138930853Y-113154823D01*
X138984413Y-112922830D01*
X137888601Y-113647275D02*
X137831490Y-113682961D01*
X137763668Y-113765047D01*
X137710108Y-113997039D01*
X137735083Y-114100549D01*
X137770769Y-114157659D01*
X137852854Y-114225482D01*
X137945652Y-114246905D01*
X138095559Y-114232643D01*
X138780886Y-113804403D01*
X138641630Y-114407585D01*
X138534511Y-114871571D02*
X138491663Y-115057165D01*
X138423840Y-115139250D01*
X138366730Y-115174937D01*
X138206110Y-115235598D01*
X138009804Y-115239149D01*
X137638615Y-115153453D01*
X137556530Y-115085631D01*
X137520844Y-115028520D01*
X137495869Y-114925011D01*
X137538717Y-114739417D01*
X137606539Y-114657331D01*
X137663650Y-114621645D01*
X137767159Y-114596670D01*
X137999152Y-114650230D01*
X138081237Y-114718052D01*
X138116924Y-114775163D01*
X138141898Y-114878672D01*
X138099050Y-115064266D01*
X138031228Y-115146352D01*
X137974117Y-115182038D01*
X137870608Y-115207013D01*
%TO.C,D37*%
X125281844Y-129932634D02*
X124307474Y-129707683D01*
X124253914Y-129939676D01*
X124268177Y-130089584D01*
X124339550Y-130203805D01*
X124421635Y-130271627D01*
X124596517Y-130360874D01*
X124735713Y-130393010D01*
X124932019Y-130389459D01*
X125035529Y-130364484D01*
X125149750Y-130293111D01*
X125228284Y-130164627D01*
X125281844Y-129932634D01*
X124103947Y-130589256D02*
X123964691Y-131192438D01*
X124410863Y-130953343D01*
X124378728Y-131092539D01*
X124403702Y-131196048D01*
X124439389Y-131253159D01*
X124521474Y-131320981D01*
X124753467Y-131374541D01*
X124856976Y-131349566D01*
X124914087Y-131313880D01*
X124981909Y-131231795D01*
X125046181Y-130953403D01*
X125021206Y-130849894D01*
X124985520Y-130792783D01*
X123889708Y-131517228D02*
X123739740Y-132166808D01*
X124810518Y-131974172D01*
%TO.C,D22*%
X277175405Y-81566067D02*
X276201035Y-81791018D01*
X276254595Y-82023011D01*
X276333129Y-82151495D01*
X276447350Y-82222868D01*
X276550859Y-82247843D01*
X276747166Y-82251394D01*
X276886361Y-82219258D01*
X277061244Y-82130011D01*
X277143329Y-82062189D01*
X277214702Y-81947968D01*
X277228965Y-81798060D01*
X277175405Y-81566067D01*
X276508071Y-82697566D02*
X276472385Y-82754676D01*
X276447410Y-82858186D01*
X276500970Y-83090178D01*
X276568792Y-83172264D01*
X276625903Y-83207950D01*
X276729412Y-83232925D01*
X276822209Y-83211501D01*
X276950693Y-83132967D01*
X277378932Y-82447640D01*
X277518188Y-83050822D01*
X276722310Y-83625537D02*
X276686624Y-83682648D01*
X276661649Y-83786157D01*
X276715209Y-84018150D01*
X276783031Y-84100235D01*
X276840142Y-84135922D01*
X276943651Y-84160896D01*
X277036448Y-84139472D01*
X277164932Y-84060938D01*
X277593171Y-83375612D01*
X277732427Y-83978793D01*
%TO.C,D8*%
X235452398Y-71060896D02*
X234478028Y-71285847D01*
X234531587Y-71517840D01*
X234610122Y-71646324D01*
X234724343Y-71717697D01*
X234827852Y-71742672D01*
X235024158Y-71746222D01*
X235163354Y-71714087D01*
X235338236Y-71624840D01*
X235420321Y-71557018D01*
X235491695Y-71442797D01*
X235505957Y-71292889D01*
X235452398Y-71060896D01*
X235152702Y-72303005D02*
X235084879Y-72220920D01*
X235027769Y-72185233D01*
X234924260Y-72160259D01*
X234877861Y-72170971D01*
X234795776Y-72238793D01*
X234760089Y-72295904D01*
X234735115Y-72399413D01*
X234777962Y-72585007D01*
X234845785Y-72667092D01*
X234902895Y-72702779D01*
X235006404Y-72727754D01*
X235052803Y-72717042D01*
X235134888Y-72649219D01*
X235170575Y-72592109D01*
X235195550Y-72488600D01*
X235152702Y-72303005D01*
X235177676Y-72199496D01*
X235213363Y-72142386D01*
X235295448Y-72074563D01*
X235481042Y-72031715D01*
X235584552Y-72056690D01*
X235641662Y-72092377D01*
X235709485Y-72174462D01*
X235752332Y-72360056D01*
X235727358Y-72463565D01*
X235691671Y-72520676D01*
X235609586Y-72588498D01*
X235423992Y-72631346D01*
X235320483Y-72606371D01*
X235263372Y-72570685D01*
X235195550Y-72488600D01*
%TO.C,D41*%
X234914466Y-129779489D02*
X234039847Y-130264298D01*
X234155278Y-130472541D01*
X234266185Y-130574401D01*
X234395654Y-130611525D01*
X234502037Y-130607002D01*
X234691718Y-130556305D01*
X234816663Y-130487047D01*
X234960172Y-130353054D01*
X235020382Y-130265233D01*
X235057507Y-130135763D01*
X235029897Y-129987731D01*
X234914466Y-129779489D01*
X235023972Y-131352152D02*
X235607052Y-131028945D01*
X234575352Y-131328598D02*
X235084650Y-130774063D01*
X235384770Y-131315494D01*
X236114947Y-131945214D02*
X235837913Y-131445431D01*
X235976430Y-131695322D02*
X235101811Y-132180132D01*
X235180584Y-132027576D01*
X235217709Y-131898107D01*
X235213185Y-131791724D01*
%TO.C,D6*%
X165652568Y-82095448D02*
X164678198Y-81870497D01*
X164624638Y-82102490D01*
X164638901Y-82252398D01*
X164710274Y-82366619D01*
X164792360Y-82434441D01*
X164967242Y-82523688D01*
X165106438Y-82555823D01*
X165302744Y-82552273D01*
X165406253Y-82527298D01*
X165520474Y-82455925D01*
X165599008Y-82327441D01*
X165652568Y-82095448D01*
X164356840Y-83262454D02*
X164399687Y-83076860D01*
X164467510Y-82994775D01*
X164524620Y-82959088D01*
X164685240Y-82898427D01*
X164881546Y-82894876D01*
X165252735Y-82980572D01*
X165334820Y-83048394D01*
X165370507Y-83105505D01*
X165395481Y-83209014D01*
X165352634Y-83394608D01*
X165284811Y-83476693D01*
X165227701Y-83512380D01*
X165124191Y-83537355D01*
X164892199Y-83483795D01*
X164810113Y-83415972D01*
X164774427Y-83358862D01*
X164749452Y-83255353D01*
X164792300Y-83069759D01*
X164860122Y-82987673D01*
X164917233Y-82951987D01*
X165020742Y-82927012D01*
%TO.C,D34*%
X281460723Y-100127817D02*
X280486353Y-100352768D01*
X280539913Y-100584761D01*
X280618447Y-100713245D01*
X280732668Y-100784618D01*
X280836177Y-100809593D01*
X281032484Y-100813144D01*
X281171679Y-100781008D01*
X281346562Y-100691761D01*
X281428647Y-100623939D01*
X281500020Y-100509718D01*
X281514283Y-100359810D01*
X281460723Y-100127817D01*
X280689880Y-101234341D02*
X280829136Y-101837523D01*
X281125341Y-101427037D01*
X281157476Y-101566233D01*
X281225299Y-101648318D01*
X281282409Y-101684005D01*
X281385918Y-101708979D01*
X281617911Y-101655419D01*
X281699997Y-101587597D01*
X281735683Y-101530486D01*
X281760658Y-101426977D01*
X281696386Y-101148586D01*
X281628564Y-101066501D01*
X281571453Y-101030814D01*
X281346741Y-102597713D02*
X281996321Y-102447746D01*
X280921992Y-102451416D02*
X281564411Y-102058744D01*
X281703667Y-102661925D01*
%TO.C,D3*%
X110324429Y-67692683D02*
X109350059Y-67467732D01*
X109296499Y-67699725D01*
X109310762Y-67849633D01*
X109382135Y-67963854D01*
X109464221Y-68031676D01*
X109639103Y-68120923D01*
X109778299Y-68153058D01*
X109974605Y-68149508D01*
X110078114Y-68124533D01*
X110192335Y-68053160D01*
X110270869Y-67924676D01*
X110324429Y-67692683D01*
X109146532Y-68349305D02*
X109007277Y-68952486D01*
X109453449Y-68713392D01*
X109421313Y-68852588D01*
X109446288Y-68956097D01*
X109481974Y-69013207D01*
X109564060Y-69081030D01*
X109796052Y-69134590D01*
X109899562Y-69109615D01*
X109956672Y-69073928D01*
X110024495Y-68991843D01*
X110088766Y-68713452D01*
X110063792Y-68609943D01*
X110028105Y-68552832D01*
%TO.C,D35*%
X300915247Y-99709531D02*
X299940877Y-99934482D01*
X299994437Y-100166475D01*
X300072971Y-100294959D01*
X300187192Y-100366332D01*
X300290701Y-100391307D01*
X300487008Y-100394858D01*
X300626203Y-100362722D01*
X300801086Y-100273475D01*
X300883171Y-100205653D01*
X300954544Y-100091432D01*
X300968807Y-99941524D01*
X300915247Y-99709531D01*
X300144404Y-100816055D02*
X300283660Y-101419237D01*
X300579865Y-101008751D01*
X300612000Y-101147947D01*
X300679823Y-101230032D01*
X300736933Y-101265719D01*
X300840442Y-101290693D01*
X301072435Y-101237133D01*
X301154521Y-101169311D01*
X301190207Y-101112200D01*
X301215182Y-101008691D01*
X301150910Y-100730300D01*
X301083088Y-100648215D01*
X301025977Y-100612528D01*
X300487187Y-102300810D02*
X300380067Y-101836824D01*
X300833341Y-101683306D01*
X300797654Y-101740416D01*
X300772680Y-101843925D01*
X300826239Y-102075918D01*
X300894062Y-102158003D01*
X300951172Y-102193690D01*
X301054682Y-102218665D01*
X301286674Y-102165105D01*
X301368760Y-102097282D01*
X301404446Y-102040172D01*
X301429421Y-101936663D01*
X301375861Y-101704670D01*
X301308039Y-101622585D01*
X301250928Y-101586898D01*
%TO.C,D42*%
X257903416Y-125117543D02*
X256929046Y-125342494D01*
X256982606Y-125574487D01*
X257061140Y-125702971D01*
X257175361Y-125774344D01*
X257278870Y-125799319D01*
X257475177Y-125802870D01*
X257614372Y-125770734D01*
X257789255Y-125681487D01*
X257871340Y-125613665D01*
X257942713Y-125499444D01*
X257956976Y-125349536D01*
X257903416Y-125117543D01*
X257575195Y-126659468D02*
X258224775Y-126509501D01*
X257150446Y-126513171D02*
X257792865Y-126120498D01*
X257932121Y-126723680D01*
X257450321Y-127177013D02*
X257414635Y-127234124D01*
X257389660Y-127337633D01*
X257443220Y-127569626D01*
X257511042Y-127651711D01*
X257568153Y-127687398D01*
X257671662Y-127712372D01*
X257764459Y-127690948D01*
X257892943Y-127612414D01*
X258321182Y-126927088D01*
X258460438Y-127530269D01*
%TO.C,D18*%
X161474370Y-100193212D02*
X160500000Y-99968261D01*
X160446440Y-100200254D01*
X160460703Y-100350162D01*
X160532076Y-100464383D01*
X160614161Y-100532205D01*
X160789043Y-100621452D01*
X160928239Y-100653588D01*
X161124545Y-100650037D01*
X161228055Y-100625062D01*
X161342276Y-100553689D01*
X161420810Y-100425205D01*
X161474370Y-100193212D01*
X161131587Y-101677967D02*
X161260131Y-101121184D01*
X161195859Y-101399575D02*
X160221489Y-101174624D01*
X160382109Y-101113963D01*
X160496330Y-101042590D01*
X160564152Y-100960505D01*
X160446261Y-102106206D02*
X160421286Y-102002697D01*
X160385600Y-101945587D01*
X160303514Y-101877764D01*
X160257116Y-101867052D01*
X160153607Y-101892027D01*
X160096496Y-101927713D01*
X160028674Y-102009799D01*
X159985826Y-102195393D01*
X160010801Y-102298902D01*
X160046487Y-102356013D01*
X160128572Y-102423835D01*
X160174971Y-102434547D01*
X160278480Y-102409572D01*
X160335591Y-102373886D01*
X160403413Y-102291801D01*
X160446261Y-102106206D01*
X160514083Y-102024121D01*
X160571194Y-101988434D01*
X160674703Y-101963460D01*
X160860297Y-102006308D01*
X160942383Y-102074130D01*
X160978069Y-102131241D01*
X161003044Y-102234750D01*
X160960196Y-102420344D01*
X160892373Y-102502429D01*
X160835263Y-102538116D01*
X160731754Y-102563090D01*
X160546160Y-102520243D01*
X160464074Y-102452420D01*
X160428388Y-102395310D01*
X160403413Y-102291801D01*
%TO.C,D13*%
X68129956Y-81086842D02*
X67155586Y-80861891D01*
X67102026Y-81093884D01*
X67116289Y-81243792D01*
X67187662Y-81358013D01*
X67269747Y-81425835D01*
X67444629Y-81515082D01*
X67583825Y-81547218D01*
X67780131Y-81543667D01*
X67883641Y-81518692D01*
X67997862Y-81447319D01*
X68076396Y-81318835D01*
X68129956Y-81086842D01*
X67787173Y-82571597D02*
X67915717Y-82014814D01*
X67851445Y-82293205D02*
X66877075Y-82068254D01*
X67037695Y-82007593D01*
X67151916Y-81936220D01*
X67219738Y-81854135D01*
X66737820Y-82671436D02*
X66598564Y-83274617D01*
X67044736Y-83035523D01*
X67012601Y-83174719D01*
X67037575Y-83278228D01*
X67073262Y-83335338D01*
X67155347Y-83403161D01*
X67387340Y-83456720D01*
X67490849Y-83431746D01*
X67547959Y-83396059D01*
X67615782Y-83313974D01*
X67680054Y-83035583D01*
X67655079Y-82932073D01*
X67619392Y-82874963D01*
%TO.C,D31*%
X225954029Y-113757176D02*
X224979659Y-113982127D01*
X225033219Y-114214120D01*
X225111753Y-114342604D01*
X225225974Y-114413977D01*
X225329483Y-114438952D01*
X225525790Y-114442503D01*
X225664985Y-114410367D01*
X225839868Y-114321120D01*
X225921953Y-114253298D01*
X225993326Y-114139077D01*
X226007589Y-113989169D01*
X225954029Y-113757176D01*
X225183186Y-114863700D02*
X225322442Y-115466882D01*
X225618647Y-115056396D01*
X225650782Y-115195592D01*
X225718605Y-115277677D01*
X225775715Y-115313364D01*
X225879224Y-115338338D01*
X226111217Y-115284778D01*
X226193303Y-115216956D01*
X226228989Y-115159845D01*
X226253964Y-115056336D01*
X226189692Y-114777945D01*
X226121870Y-114695860D01*
X226064759Y-114660173D01*
X226511051Y-116169902D02*
X226382507Y-115613119D01*
X226446779Y-115891511D02*
X225472409Y-116116462D01*
X225590181Y-115991529D01*
X225661554Y-115877308D01*
X225686529Y-115773799D01*
%TO.C,D25*%
X63844640Y-99648592D02*
X62870270Y-99423641D01*
X62816710Y-99655634D01*
X62830973Y-99805542D01*
X62902346Y-99919763D01*
X62984431Y-99987585D01*
X63159313Y-100076832D01*
X63298509Y-100108968D01*
X63494815Y-100105417D01*
X63598325Y-100080442D01*
X63712546Y-100009069D01*
X63791080Y-99880585D01*
X63844640Y-99648592D01*
X62748828Y-100373037D02*
X62691717Y-100408723D01*
X62623895Y-100490809D01*
X62570335Y-100722801D01*
X62595310Y-100826311D01*
X62630996Y-100883421D01*
X62713081Y-100951244D01*
X62805879Y-100972667D01*
X62955786Y-100958405D01*
X63641113Y-100530165D01*
X63501857Y-101133347D01*
X62323960Y-101789969D02*
X62431080Y-101325983D01*
X62905777Y-101386704D01*
X62848667Y-101422391D01*
X62780844Y-101504476D01*
X62727285Y-101736469D01*
X62752259Y-101839978D01*
X62787946Y-101897088D01*
X62870031Y-101964911D01*
X63102024Y-102018470D01*
X63205533Y-101993496D01*
X63262643Y-101957809D01*
X63330466Y-101875724D01*
X63384026Y-101643731D01*
X63359051Y-101540222D01*
X63323364Y-101483111D01*
%TO.C,D15*%
X106146230Y-85790446D02*
X105171860Y-85565495D01*
X105118300Y-85797488D01*
X105132563Y-85947396D01*
X105203936Y-86061617D01*
X105286021Y-86129439D01*
X105460903Y-86218686D01*
X105600099Y-86250822D01*
X105796405Y-86247271D01*
X105899915Y-86222296D01*
X106014136Y-86150923D01*
X106092670Y-86022439D01*
X106146230Y-85790446D01*
X105803447Y-87275201D02*
X105931991Y-86718418D01*
X105867719Y-86996809D02*
X104893349Y-86771858D01*
X105053969Y-86711197D01*
X105168190Y-86639824D01*
X105236012Y-86557739D01*
X104625550Y-87931823D02*
X104732670Y-87467837D01*
X105207367Y-87528558D01*
X105150257Y-87564245D01*
X105082434Y-87646330D01*
X105028875Y-87878323D01*
X105053849Y-87981832D01*
X105089536Y-88038942D01*
X105171621Y-88106765D01*
X105403614Y-88160324D01*
X105507123Y-88135350D01*
X105564233Y-88099663D01*
X105632056Y-88017578D01*
X105685616Y-87785585D01*
X105660641Y-87682076D01*
X105624954Y-87624965D01*
%TO.C,D2*%
X90869904Y-67274396D02*
X89895534Y-67049445D01*
X89841974Y-67281438D01*
X89856237Y-67431346D01*
X89927610Y-67545567D01*
X90009696Y-67613389D01*
X90184578Y-67702636D01*
X90323774Y-67734771D01*
X90520080Y-67731221D01*
X90623589Y-67706246D01*
X90737810Y-67634873D01*
X90816344Y-67506389D01*
X90869904Y-67274396D01*
X89774092Y-67998841D02*
X89716982Y-68034527D01*
X89649159Y-68116612D01*
X89595599Y-68348605D01*
X89620574Y-68452114D01*
X89656261Y-68509225D01*
X89738346Y-68577047D01*
X89831143Y-68598471D01*
X89981051Y-68584209D01*
X90666377Y-68155969D01*
X90527122Y-68759151D01*
%TO.C,D17*%
X143269731Y-94361082D02*
X142295361Y-94136131D01*
X142241801Y-94368124D01*
X142256064Y-94518032D01*
X142327437Y-94632253D01*
X142409522Y-94700075D01*
X142584404Y-94789322D01*
X142723600Y-94821458D01*
X142919906Y-94817907D01*
X143023416Y-94792932D01*
X143137637Y-94721559D01*
X143216171Y-94593075D01*
X143269731Y-94361082D01*
X142926948Y-95845837D02*
X143055492Y-95289054D01*
X142991220Y-95567445D02*
X142016850Y-95342494D01*
X142177470Y-95281833D01*
X142291691Y-95210460D01*
X142359513Y-95128375D01*
X141877595Y-95945676D02*
X141727627Y-96595256D01*
X142798405Y-96402620D01*
%TO.C,D9*%
X253528479Y-64671913D02*
X252554109Y-64896864D01*
X252607668Y-65128857D01*
X252686203Y-65257341D01*
X252800424Y-65328714D01*
X252903933Y-65353689D01*
X253100239Y-65357239D01*
X253239435Y-65325104D01*
X253414317Y-65235857D01*
X253496402Y-65168035D01*
X253567776Y-65053814D01*
X253582038Y-64903906D01*
X253528479Y-64671913D01*
X253764142Y-65692682D02*
X253806989Y-65878276D01*
X253782015Y-65981785D01*
X253746328Y-66038896D01*
X253628556Y-66163829D01*
X253453674Y-66253075D01*
X253082485Y-66338771D01*
X252978976Y-66313796D01*
X252921866Y-66278109D01*
X252854043Y-66196024D01*
X252811196Y-66010430D01*
X252836170Y-65906921D01*
X252871857Y-65849810D01*
X252953942Y-65781988D01*
X253185935Y-65728428D01*
X253289444Y-65753403D01*
X253346554Y-65789089D01*
X253414377Y-65871174D01*
X253457225Y-66056769D01*
X253432250Y-66160278D01*
X253396564Y-66217388D01*
X253314478Y-66285211D01*
%TO.C,D20*%
X239873351Y-89363296D02*
X238898981Y-89588247D01*
X238952541Y-89820240D01*
X239031075Y-89948724D01*
X239145296Y-90020097D01*
X239248805Y-90045072D01*
X239445112Y-90048623D01*
X239584307Y-90016487D01*
X239759190Y-89927240D01*
X239841275Y-89859418D01*
X239912648Y-89745197D01*
X239926911Y-89595289D01*
X239873351Y-89363296D01*
X239206017Y-90494795D02*
X239170331Y-90551905D01*
X239145356Y-90655415D01*
X239198916Y-90887407D01*
X239266738Y-90969493D01*
X239323849Y-91005179D01*
X239427358Y-91030154D01*
X239520155Y-91008730D01*
X239648639Y-90930196D01*
X240076878Y-90244869D01*
X240216134Y-90848051D01*
X239381019Y-91676183D02*
X239402443Y-91768980D01*
X239470265Y-91851066D01*
X239527376Y-91886752D01*
X239630885Y-91911727D01*
X239827191Y-91915278D01*
X240059184Y-91861718D01*
X240234067Y-91772471D01*
X240316152Y-91704649D01*
X240351838Y-91647538D01*
X240376813Y-91544029D01*
X240355389Y-91451232D01*
X240287567Y-91369147D01*
X240230456Y-91333460D01*
X240126947Y-91308486D01*
X239930641Y-91304935D01*
X239698648Y-91358495D01*
X239523765Y-91447741D01*
X239441680Y-91515564D01*
X239405994Y-91572674D01*
X239381019Y-91676183D01*
%TO.C,D28*%
X121136883Y-105543889D02*
X120162513Y-105318938D01*
X120108953Y-105550931D01*
X120123216Y-105700839D01*
X120194589Y-105815060D01*
X120276674Y-105882882D01*
X120451556Y-105972129D01*
X120590752Y-106004265D01*
X120787058Y-106000714D01*
X120890568Y-105975739D01*
X121004789Y-105904366D01*
X121083323Y-105775882D01*
X121136883Y-105543889D01*
X120041071Y-106268334D02*
X119983960Y-106304020D01*
X119916138Y-106386106D01*
X119862578Y-106618098D01*
X119887553Y-106721608D01*
X119923239Y-106778718D01*
X120005324Y-106846541D01*
X120098122Y-106867964D01*
X120248029Y-106853702D01*
X120933356Y-106425462D01*
X120794100Y-107028644D01*
X120108774Y-107456883D02*
X120083799Y-107353374D01*
X120048113Y-107296264D01*
X119966027Y-107228441D01*
X119919629Y-107217729D01*
X119816120Y-107242704D01*
X119759009Y-107278390D01*
X119691187Y-107360476D01*
X119648339Y-107546070D01*
X119673314Y-107649579D01*
X119709000Y-107706690D01*
X119791085Y-107774512D01*
X119837484Y-107785224D01*
X119940993Y-107760249D01*
X119998104Y-107724563D01*
X120065926Y-107642478D01*
X120108774Y-107456883D01*
X120176596Y-107374798D01*
X120233707Y-107339111D01*
X120337216Y-107314137D01*
X120522810Y-107356985D01*
X120604896Y-107424807D01*
X120640582Y-107481918D01*
X120665557Y-107585427D01*
X120622709Y-107771021D01*
X120554886Y-107853106D01*
X120497776Y-107888793D01*
X120394267Y-107913767D01*
X120208673Y-107870920D01*
X120126587Y-107803097D01*
X120090901Y-107745987D01*
X120065926Y-107642478D01*
%TO.C,D10*%
X272697328Y-63016234D02*
X271722958Y-63241185D01*
X271776518Y-63473178D01*
X271855052Y-63601662D01*
X271969273Y-63673035D01*
X272072782Y-63698010D01*
X272269089Y-63701561D01*
X272408284Y-63669425D01*
X272583167Y-63580178D01*
X272665252Y-63512356D01*
X272736625Y-63398135D01*
X272750888Y-63248227D01*
X272697328Y-63016234D01*
X273040111Y-64500989D02*
X272911567Y-63944206D01*
X272975839Y-64222597D02*
X272001469Y-64447548D01*
X272119241Y-64322615D01*
X272190614Y-64208394D01*
X272215589Y-64104885D01*
X272204996Y-65329121D02*
X272226420Y-65421918D01*
X272294242Y-65504004D01*
X272351353Y-65539690D01*
X272454862Y-65564665D01*
X272651168Y-65568216D01*
X272883161Y-65514656D01*
X273058044Y-65425409D01*
X273140129Y-65357587D01*
X273175815Y-65300476D01*
X273200790Y-65196967D01*
X273179366Y-65104170D01*
X273111544Y-65022085D01*
X273054433Y-64986398D01*
X272950924Y-64961424D01*
X272754618Y-64957873D01*
X272522625Y-65011433D01*
X272347742Y-65100679D01*
X272265657Y-65168502D01*
X272229971Y-65225612D01*
X272204996Y-65329121D01*
%TO.C,D33*%
X262184754Y-101319510D02*
X261210384Y-101544461D01*
X261263944Y-101776454D01*
X261342478Y-101904938D01*
X261456699Y-101976311D01*
X261560208Y-102001286D01*
X261756515Y-102004837D01*
X261895710Y-101972701D01*
X262070593Y-101883454D01*
X262152678Y-101815632D01*
X262224051Y-101701411D01*
X262238314Y-101551503D01*
X262184754Y-101319510D01*
X261413911Y-102426034D02*
X261553167Y-103029216D01*
X261849372Y-102618730D01*
X261881507Y-102757926D01*
X261949330Y-102840011D01*
X262006440Y-102875698D01*
X262109949Y-102900672D01*
X262341942Y-102847112D01*
X262424028Y-102779290D01*
X262459714Y-102722179D01*
X262484689Y-102618670D01*
X262420417Y-102340279D01*
X262352595Y-102258194D01*
X262295484Y-102222507D01*
X261628150Y-103354006D02*
X261767406Y-103957187D01*
X262063611Y-103546702D01*
X262095746Y-103685897D01*
X262163569Y-103767982D01*
X262220679Y-103803669D01*
X262324189Y-103828644D01*
X262556181Y-103775084D01*
X262638267Y-103707261D01*
X262673953Y-103650151D01*
X262698928Y-103546642D01*
X262634656Y-103268250D01*
X262566834Y-103186165D01*
X262509723Y-103150479D01*
%TO.C,D1*%
X72308155Y-62989078D02*
X71333785Y-62764127D01*
X71280225Y-62996120D01*
X71294488Y-63146028D01*
X71365861Y-63260249D01*
X71447947Y-63328071D01*
X71622829Y-63417318D01*
X71762025Y-63449453D01*
X71958331Y-63445903D01*
X72061840Y-63420928D01*
X72176061Y-63349555D01*
X72254595Y-63221071D01*
X72308155Y-62989078D01*
X71965373Y-64473833D02*
X72093916Y-63917050D01*
X72029644Y-64195441D02*
X71055274Y-63970490D01*
X71215894Y-63909829D01*
X71330115Y-63838456D01*
X71397938Y-63756370D01*
%TO.C,D14*%
X86691706Y-85372160D02*
X85717336Y-85147209D01*
X85663776Y-85379202D01*
X85678039Y-85529110D01*
X85749412Y-85643331D01*
X85831497Y-85711153D01*
X86006379Y-85800400D01*
X86145575Y-85832536D01*
X86341881Y-85828985D01*
X86445391Y-85804010D01*
X86559612Y-85732637D01*
X86638146Y-85604153D01*
X86691706Y-85372160D01*
X86348923Y-86856915D02*
X86477467Y-86300132D01*
X86413195Y-86578523D02*
X85438825Y-86353572D01*
X85599445Y-86292911D01*
X85713666Y-86221538D01*
X85781488Y-86139453D01*
X85506528Y-87542122D02*
X86156108Y-87692089D01*
X85188899Y-87224433D02*
X85938438Y-87153120D01*
X85799182Y-87756301D01*
%TO.C,D26*%
X82406390Y-103933910D02*
X81432020Y-103708959D01*
X81378460Y-103940952D01*
X81392723Y-104090860D01*
X81464096Y-104205081D01*
X81546181Y-104272903D01*
X81721063Y-104362150D01*
X81860259Y-104394286D01*
X82056565Y-104390735D01*
X82160075Y-104365760D01*
X82274296Y-104294387D01*
X82352830Y-104165903D01*
X82406390Y-103933910D01*
X81310578Y-104658355D02*
X81253467Y-104694041D01*
X81185645Y-104776127D01*
X81132085Y-105008119D01*
X81157060Y-105111629D01*
X81192746Y-105168739D01*
X81274831Y-105236562D01*
X81367629Y-105257985D01*
X81517536Y-105243723D01*
X82202863Y-104815483D01*
X82063607Y-105418665D01*
X80896422Y-106028888D02*
X80939270Y-105843294D01*
X81007092Y-105761209D01*
X81064203Y-105725522D01*
X81224822Y-105664861D01*
X81421129Y-105661310D01*
X81792317Y-105747006D01*
X81874403Y-105814828D01*
X81910089Y-105871939D01*
X81935064Y-105975448D01*
X81892216Y-106161042D01*
X81824393Y-106243127D01*
X81767283Y-106278814D01*
X81663774Y-106303788D01*
X81431781Y-106250229D01*
X81349696Y-106182406D01*
X81314009Y-106125296D01*
X81289035Y-106021787D01*
X81331882Y-105836192D01*
X81399705Y-105754107D01*
X81456815Y-105718420D01*
X81560324Y-105693446D01*
%TO.C,D39*%
X149547263Y-142512079D02*
X148738246Y-141924293D01*
X148598297Y-142116916D01*
X148552852Y-142260480D01*
X148573922Y-142393509D01*
X148622981Y-142488013D01*
X148749090Y-142638497D01*
X148864664Y-142722466D01*
X149046752Y-142795901D01*
X149151791Y-142813355D01*
X149284820Y-142792286D01*
X149407314Y-142704702D01*
X149547263Y-142512079D01*
X148206440Y-142656261D02*
X147842573Y-143157081D01*
X148346698Y-143111327D01*
X148262729Y-143226901D01*
X148245274Y-143331940D01*
X148255809Y-143398454D01*
X148304868Y-143492958D01*
X148497491Y-143632907D01*
X148602530Y-143650362D01*
X148669045Y-143639827D01*
X148763549Y-143590768D01*
X148931488Y-143359620D01*
X148948943Y-143254581D01*
X148938408Y-143188067D01*
X148371692Y-144130113D02*
X148259733Y-144284211D01*
X148165229Y-144333271D01*
X148098714Y-144343805D01*
X147927161Y-144336885D01*
X147745073Y-144263451D01*
X147436876Y-144039533D01*
X147387816Y-143945028D01*
X147377282Y-143878514D01*
X147394736Y-143773475D01*
X147506696Y-143619377D01*
X147601200Y-143570317D01*
X147667714Y-143559782D01*
X147772753Y-143577237D01*
X147965376Y-143717186D01*
X148014436Y-143811690D01*
X148024971Y-143878205D01*
X148007516Y-143983244D01*
X147895557Y-144137342D01*
X147801052Y-144186402D01*
X147734538Y-144196936D01*
X147629499Y-144179481D01*
%TO.C,SW1*%
X178044578Y-108171024D02*
X178044578Y-107921024D01*
X178044578Y-107921024D02*
X184044578Y-107921024D01*
X184044578Y-111421024D02*
X178044578Y-111421024D01*
X178044578Y-111421024D02*
X178044578Y-111171024D01*
X184044578Y-107921024D02*
X184044578Y-108171024D01*
X184044578Y-111171024D02*
X184044578Y-111421024D01*
D11*
%TO.C,D4*%
X125564327Y-71019270D02*
X126441636Y-67219226D01*
X127513067Y-71469172D02*
X125564327Y-71019270D01*
X127513067Y-71469172D02*
X128390376Y-67669128D01*
%TO.C,D32*%
X241574068Y-112077160D02*
X240696759Y-108277116D01*
X243522808Y-111627258D02*
X242645499Y-107827214D01*
X243522808Y-111627258D02*
X241574068Y-112077160D01*
%TO.C,D21*%
X257263575Y-86459972D02*
X256386266Y-82659928D01*
X257263575Y-86459972D02*
X255314835Y-86909874D01*
X255314835Y-86909874D02*
X254437526Y-83109830D01*
%TO.C,D19*%
X221032850Y-98897638D02*
X220155541Y-95097594D01*
X219084110Y-99347540D02*
X218206801Y-95547496D01*
X221032850Y-98897638D02*
X219084110Y-99347540D01*
%TO.C,D11*%
X289760011Y-66738145D02*
X288882702Y-62938101D01*
X291708751Y-66288243D02*
X289760011Y-66738145D01*
X291708751Y-66288243D02*
X290831442Y-62488199D01*
%TO.C,D7*%
X216633337Y-80688104D02*
X215756028Y-76888060D01*
X214684597Y-81138006D02*
X213807288Y-77337962D01*
X216633337Y-80688104D02*
X214684597Y-81138006D01*
%TO.C,D30*%
X154994602Y-121803745D02*
X155871911Y-118003701D01*
X154994602Y-121803745D02*
X153045862Y-121353843D01*
X153045862Y-121353843D02*
X153923171Y-117553799D01*
%TO.C,D23*%
X295994069Y-84849993D02*
X295116760Y-81049949D01*
X294045329Y-85299895D02*
X293168020Y-81499851D01*
X295994069Y-84849993D02*
X294045329Y-85299895D01*
%TO.C,D5*%
X145360596Y-78848115D02*
X146237905Y-75048071D01*
X143411856Y-78398213D02*
X144289165Y-74598169D01*
X145360596Y-78848115D02*
X143411856Y-78398213D01*
%TO.C,D24*%
X314555818Y-80564675D02*
X312607078Y-81014577D01*
X312607078Y-81014577D02*
X311729769Y-77214533D01*
X314555818Y-80564675D02*
X313678509Y-76764631D01*
%TO.C,D36*%
X318841136Y-99126425D02*
X316892396Y-99576327D01*
X316892396Y-99576327D02*
X316015087Y-95776283D01*
X318841136Y-99126425D02*
X317963827Y-95326381D01*
%TO.C,D40*%
X218814499Y-141935028D02*
X216413419Y-138861786D01*
X218814499Y-141935028D02*
X217238478Y-143166351D01*
X217238478Y-143166351D02*
X214837398Y-140093109D01*
%TO.C,D38*%
X143052024Y-142329150D02*
X144822587Y-138854225D01*
X143052024Y-142329150D02*
X141270011Y-141421169D01*
X141270011Y-141421169D02*
X143040574Y-137946244D01*
%TO.C,D12*%
X308321761Y-62452828D02*
X307444452Y-58652784D01*
X310270501Y-62002926D02*
X309393192Y-58202882D01*
X310270501Y-62002926D02*
X308321761Y-62452828D01*
%TO.C,D27*%
X99666463Y-107400979D02*
X100543772Y-103600935D01*
X97717723Y-106951077D02*
X98595032Y-103151033D01*
X99666463Y-107400979D02*
X97717723Y-106951077D01*
%TO.C,D16*%
X121279009Y-89581019D02*
X122156318Y-85780975D01*
X123227749Y-90030921D02*
X124105058Y-86230877D01*
X123227749Y-90030921D02*
X121279009Y-89581019D01*
%TO.C,D29*%
X134841222Y-115521711D02*
X135718531Y-111721667D01*
X136789962Y-115971613D02*
X134841222Y-115521711D01*
X136789962Y-115971613D02*
X137667271Y-112171569D01*
%TO.C,D37*%
X123087393Y-132981417D02*
X123964702Y-129181373D01*
X123087393Y-132981417D02*
X121138653Y-132531515D01*
X121138653Y-132531515D02*
X122015962Y-128731471D01*
%TO.C,D22*%
X276539544Y-85268279D02*
X275662235Y-81468235D01*
X276539544Y-85268279D02*
X274590804Y-85718181D01*
X274590804Y-85718181D02*
X273713495Y-81918137D01*
%TO.C,D8*%
X232760677Y-74749024D02*
X231883368Y-70948980D01*
X234709417Y-74299122D02*
X232760677Y-74749024D01*
X234709417Y-74299122D02*
X233832108Y-70499078D01*
%TO.C,D41*%
X235323705Y-133513550D02*
X233574466Y-134483169D01*
X235323705Y-133513550D02*
X233432948Y-130102533D01*
X233574466Y-134483169D02*
X231683708Y-131072152D01*
%TO.C,D6*%
X163565237Y-84680245D02*
X164442546Y-80880201D01*
X161616497Y-84230343D02*
X162493806Y-80430299D01*
X163565237Y-84680245D02*
X161616497Y-84230343D01*
%TO.C,D34*%
X280824862Y-103830029D02*
X279947553Y-100029985D01*
X280824862Y-103830029D02*
X278876122Y-104279931D01*
X278876122Y-104279931D02*
X277998813Y-100479887D01*
%TO.C,D3*%
X108237098Y-70277480D02*
X106288358Y-69827578D01*
X106288358Y-69827578D02*
X107165667Y-66027534D01*
X108237098Y-70277480D02*
X109114407Y-66477436D01*
%TO.C,D35*%
X300279386Y-103411743D02*
X299402077Y-99611699D01*
X300279386Y-103411743D02*
X298330646Y-103861645D01*
X298330646Y-103861645D02*
X297453337Y-100061601D01*
%TO.C,D42*%
X257267555Y-128819755D02*
X256390246Y-125019711D01*
X255318815Y-129269657D02*
X254441506Y-125469613D01*
X257267555Y-128819755D02*
X255318815Y-129269657D01*
%TO.C,D18*%
X159279919Y-103241995D02*
X160157228Y-99441951D01*
X159279919Y-103241995D02*
X157331179Y-102792093D01*
X157331179Y-102792093D02*
X158208488Y-98992049D01*
%TO.C,D13*%
X65935505Y-84135625D02*
X66812814Y-80335581D01*
X63986765Y-83685723D02*
X64864074Y-79885679D01*
X65935505Y-84135625D02*
X63986765Y-83685723D01*
%TO.C,D31*%
X223369428Y-117909290D02*
X222492119Y-114109246D01*
X225318168Y-117459388D02*
X224440859Y-113659344D01*
X225318168Y-117459388D02*
X223369428Y-117909290D01*
%TO.C,D25*%
X59701449Y-102247473D02*
X60578758Y-98447429D01*
X61650189Y-102697375D02*
X62527498Y-98897331D01*
X61650189Y-102697375D02*
X59701449Y-102247473D01*
%TO.C,D15*%
X103951779Y-88839229D02*
X104829088Y-85039185D01*
X103951779Y-88839229D02*
X102003039Y-88389327D01*
X102003039Y-88389327D02*
X102880348Y-84589283D01*
%TO.C,D2*%
X88782573Y-69859193D02*
X86833833Y-69409291D01*
X88782573Y-69859193D02*
X89659882Y-66059149D01*
X86833833Y-69409291D02*
X87711142Y-65609247D01*
%TO.C,D17*%
X139126540Y-96959963D02*
X140003849Y-93159919D01*
X141075280Y-97409865D02*
X141952589Y-93609821D01*
X141075280Y-97409865D02*
X139126540Y-96959963D01*
%TO.C,D9*%
X252785498Y-67910139D02*
X251908189Y-64110095D01*
X250836758Y-68360041D02*
X249959449Y-64559997D01*
X252785498Y-67910139D02*
X250836758Y-68360041D01*
%TO.C,D20*%
X237288750Y-93515410D02*
X236411441Y-89715366D01*
X239237490Y-93065508D02*
X238360181Y-89265464D01*
X239237490Y-93065508D02*
X237288750Y-93515410D01*
%TO.C,D28*%
X118942432Y-108592672D02*
X119819741Y-104792628D01*
X118942432Y-108592672D02*
X116993692Y-108142770D01*
X116993692Y-108142770D02*
X117871001Y-104342726D01*
%TO.C,D10*%
X272061467Y-66718446D02*
X271184158Y-62918402D01*
X272061467Y-66718446D02*
X270112727Y-67168348D01*
X270112727Y-67168348D02*
X269235418Y-63368304D01*
%TO.C,D33*%
X261548893Y-105021722D02*
X259600153Y-105471624D01*
X261548893Y-105021722D02*
X260671584Y-101221678D01*
X259600153Y-105471624D02*
X258722844Y-101671580D01*
%TO.C,D1*%
X70220824Y-65573875D02*
X71098133Y-61773831D01*
X70220824Y-65573875D02*
X68272084Y-65123973D01*
X68272084Y-65123973D02*
X69149393Y-61323929D01*
%TO.C,D14*%
X84497255Y-88420943D02*
X85374564Y-84620899D01*
X82548515Y-87971041D02*
X83425824Y-84170997D01*
X84497255Y-88420943D02*
X82548515Y-87971041D01*
%TO.C,D26*%
X80211939Y-106982693D02*
X78263199Y-106532791D01*
X80211939Y-106982693D02*
X81089248Y-103182649D01*
X78263199Y-106532791D02*
X79140508Y-102732747D01*
%TO.C,D39*%
X146336006Y-144461056D02*
X148628369Y-141305890D01*
X146336006Y-144461056D02*
X144717972Y-143285486D01*
X144717972Y-143285486D02*
X147010335Y-140130320D01*
%TD*%
M02*
